HIERARCHY
ROOT Hip
{
	OFFSET 0 1.131 0.0052
	CHANNELS 6 Xposition Yposition Zposition Xrotation Yrotation Zrotation
	JOINT Abdomen
	{
		OFFSET 0 -0.047353 -0.05
		CHANNELS 3 Xrotation Zrotation Yrotation
		JOINT Chest
		{
			OFFSET 0 0.132153 0.007439
			CHANNELS 3 Xrotation Zrotation Yrotation
			JOINT Neck
			{
				OFFSET 0 0.3078 0.006161
				CHANNELS 3 Xrotation Zrotation Yrotation
				JOINT Head_comp
				{
					OFFSET 0 0.0884 0.013
					CHANNELS 3 Xrotation Yrotation Zrotation
					End Site
					{
						OFFSET -0 0.156 0.0624
					}
				}
			}
			JOINT Left_Collar
			{
				OFFSET 0.02282 0.250342 0.017193
				CHANNELS 2 Yrotation Zrotation
				JOINT Left_Shoulder
				{
					OFFSET 0.15421 0 0
					CHANNELS 3 Xrotation Yrotation Zrotation
					JOINT Left_Forearm
					{
						OFFSET 0.265212 0 0
						CHANNELS 2 Yrotation Xrotation
						JOINT Left_Hand
						{
							OFFSET 0.27571 0 0
							CHANNELS 2 Zrotation Yrotation
							JOINT L1ProxPhalanx
							{
								OFFSET 0.014142 0.001733 0.014142
								CHANNELS 3 Yrotation Zrotation Xrotation
								JOINT L1MidPhalanx
								{
									OFFSET 0.04 0 0
									CHANNELS 1 Zrotation
									JOINT L1DistPhalanx
									{
										OFFSET 0.035 0 0
										CHANNELS 1 Zrotation
										End Site
										{
											OFFSET 0.029 -0 -0
										}
									}
								}
							}
							JOINT L2ProxPhalanx
							{
								OFFSET 0.0821037 0.001578 0.0219996
								CHANNELS 2 Yrotation Zrotation
								JOINT L2MidPhalanx
								{
									OFFSET 0.04 0 0
									CHANNELS 1 Zrotation
									JOINT L2DistPhalanx
									{
										OFFSET 0.028 0 0
										CHANNELS 1 Zrotation
										End Site
										{
											OFFSET 0.02 -0 -0
										}
									}
								}
							}
							JOINT L3ProxPhalanx
							{
								OFFSET 0.083 0 0
								CHANNELS 2 Yrotation Zrotation
								JOINT L3MidPhalanx
								{
									OFFSET 0.053 0 0
									CHANNELS 1 Zrotation
									JOINT L3DistPhalanx
									{
										OFFSET 0.03 0 0
										CHANNELS 1 Zrotation
										End Site
										{
											OFFSET 0.023 -0 -0
										}
									}
								}
							}
							JOINT L4ProxPhalanx
							{
								OFFSET 0.077274 -0.000761 -0.0207055
								CHANNELS 2 Yrotation Zrotation
								JOINT L4MidPhalanx
								{
									OFFSET 0.05 0 0
									CHANNELS 1 Zrotation
									JOINT L4DistPhalanx
									{
										OFFSET 0.03 0 0
										CHANNELS 1 Zrotation
										End Site
										{
											OFFSET 0.023 -0 -0
										}
									}
								}
							}
							JOINT L5ProxPhalanx
							{
								OFFSET 0.0675499 -0.001644 -0.039
								CHANNELS 2 Yrotation Zrotation
								JOINT L5MidPhalanx
								{
									OFFSET 0.04 0 0
									CHANNELS 1 Zrotation
									JOINT L5DistPhalanx
									{
										OFFSET 0.021 0 0
										CHANNELS 1 Zrotation
										End Site
										{
											OFFSET 0.022 -0 -0
										}
									}
								}
							}
						}
					}
				}
			}
			JOINT Right_Collar
			{
				OFFSET -0.02282 0.250342 0.017193
				CHANNELS 2 Yrotation Zrotation
				JOINT Right_Shoulder
				{
					OFFSET -0.15421 0 0
					CHANNELS 3 Xrotation Yrotation Zrotation
					JOINT Right_Forearm
					{
						OFFSET -0.265212 0 0
						CHANNELS 2 Yrotation Xrotation
						JOINT Right_Hand
						{
							OFFSET -0.27571 3e-006 0
							CHANNELS 2 Zrotation Yrotation
							JOINT R1ProxPhalanx
							{
								OFFSET -0.014142 0.001733 0.014142
								CHANNELS 3 Yrotation Zrotation Xrotation
								JOINT R1MidPhalanx
								{
									OFFSET -0.04 0 0
									CHANNELS 1 Zrotation
									JOINT R1DistPhalanx
									{
										OFFSET -0.035 0 0
										CHANNELS 1 Zrotation
										End Site
										{
											OFFSET -0.029 -0 -0
										}
									}
								}
							}
							JOINT R2ProxPhalanx
							{
								OFFSET -0.0821037 0.001578 0.0219996
								CHANNELS 2 Yrotation Zrotation
								JOINT R2MidPhalanx
								{
									OFFSET -0.04 0 0
									CHANNELS 1 Zrotation
									JOINT R2DistPhalanx
									{
										OFFSET -0.028 0 0
										CHANNELS 1 Zrotation
										End Site
										{
											OFFSET -0.02 -0 -0
										}
									}
								}
							}
							JOINT R3ProxPhalanx
							{
								OFFSET -0.083 0 0
								CHANNELS 2 Yrotation Zrotation
								JOINT R3MidPhalanx
								{
									OFFSET -0.053 0 0
									CHANNELS 1 Zrotation
									JOINT R3DistPhalanx
									{
										OFFSET -0.03 0 0
										CHANNELS 1 Zrotation
										End Site
										{
											OFFSET -0.023 -0 -0
										}
									}
								}
							}
							JOINT R4ProxPhalanx
							{
								OFFSET -0.077274 -0.000761 -0.0207055
								CHANNELS 2 Yrotation Zrotation
								JOINT R4MidPhalanx
								{
									OFFSET -0.05 0 0
									CHANNELS 1 Zrotation
									JOINT R4DistPhalanx
									{
										OFFSET -0.03 0 0
										CHANNELS 1 Zrotation
										End Site
										{
											OFFSET -0.023 -0 -0
										}
									}
								}
							}
							JOINT R5ProxPhalanx
							{
								OFFSET -0.0675499 -0.001644 -0.039
								CHANNELS 2 Yrotation Zrotation
								JOINT R5MidPhalanx
								{
									OFFSET -0.04 0 0
									CHANNELS 1 Zrotation
									JOINT R5DistPhalanx
									{
										OFFSET -0.021 0 0
										CHANNELS 1 Zrotation
										End Site
										{
											OFFSET -0.022 -0 -0
										}
									}
								}
							}
						}
					}
				}
			}
		}
	}
	JOINT Left_Thigh
	{
		OFFSET 0.1118 -0.1612 -0.0442
		CHANNELS 3 Xrotation Zrotation Yrotation
		JOINT Left_Shin
		{
			OFFSET 0 -0.477856 0
			CHANNELS 1 Xrotation
			JOINT Left_Foot
			{
				OFFSET 0 -0.431952 0
				CHANNELS 2 Xrotation Zrotation
				JOINT Left_Toe
				{
					OFFSET 0 -0.0442 0.119
					CHANNELS 1 Xrotation
					End Site
					{
						OFFSET -0 -0 0.07
					}
				}
			}
		}
	}
	JOINT Right_Thigh
	{
		OFFSET -0.1118 -0.1612 -0.0442
		CHANNELS 3 Xrotation Zrotation Yrotation
		JOINT Right_Shin
		{
			OFFSET 0 -0.477856 0
			CHANNELS 1 Xrotation
			JOINT Right_Foot
			{
				OFFSET 0 -0.431952 0
				CHANNELS 2 Xrotation Zrotation
				JOINT Right_Toe
				{
					OFFSET 0 -0.0442 0.119
					CHANNELS 1 Xrotation
					End Site
					{
						OFFSET -0 -0 0.07
					}
				}
			}
		}
	}
}
MOTION
Frames: 6
Frame Time: 0.009975
-0.103967 -0.0600552 0.0463198 7.02329e-013 3.95291e-008 -5.10935e-006 0 -0 0 0 -0 0 0 -0 0 -0.712435 0.298404 3.91172e-011 0.416019 -11.2067 8.26787 -27.7857 -46.3598 -72.6851 5.33117 9.43784 5.11223 -64.5474 5.85863 80.9385 -17.8962 -21.8643 2.53713 -6.04963 -19.82 -8.68724 3.12805 -10.1719 -10.6233 -7.13149 3.78801 -18.6919 -5.054 -7.01862 5.95966 -36.3238 16.8374 -8.01077 2.80421 28.1996 7.49859 13.8403 41.5683 80.87 4.97407 -5.17506 -3.77911 61.3705 6.41383 81.71 20.5815 18.6097 1.83244 7.37295 18.5301 10.6294 -4.27876 12.4919 13.4893 13.7851 -5.82055 24.5765 6.47447 3.3858 -5.50242 39.7319 -18.3345 8.17632 0.449585 -0.493281 -0.0038713 0.0240216 -0.47359 0.493301 0 0.460989 -0.49328 -0.00396949 2.41484e-006 -0.460975 0.493301 0 
-0.103847 -0.060061 0.0468892 1.97643e-012 4.27061e-008 -5.10934e-006 0 -0 0 0 -0 0 0 -0 0 -0.712491 0.298076 4.09356e-011 0.400195 -10.9305 9.27551 -26.9867 -46.8043 -73.6717 5.12839 9.07886 4.91778 -63.5404 4.55943 80.8133 -17.4199 -21.5153 2.20448 -6.42712 -20.2382 -8.86221 2.9911 -10.6919 -10.8996 -7.5291 3.9781 -18.8127 -6.25765 -7.46555 6.37259 -35.6744 14.757 -9.07847 2.6969 27.2679 8.58192 13.3126 42.3354 81.6385 4.78373 -4.97703 -3.63449 60.5207 7.19702 81.4194 20.7868 18.9665 2.24176 7.76625 18.9107 10.9561 -4.12357 12.8526 14.183 14.3052 -5.92251 24.7988 7.40772 4.12489 -5.58687 39.2605 -16.3946 8.96856 0.48545 -0.500859 -0.00424433 0.0240216 -0.509454 0.500882 0 0.496855 -0.500858 -0.00434402 2.83165e-006 -0.496839 0.500882 0 
-0.103726 -0.0600673 0.0474686 6.4129e-013 4.59423e-008 -5.10932e-006 0 -0 0 0 -0 0 0 -0 0 -0.712549 0.297746 4.26106e-011 0.384089 -10.6491 10.2901 -26.195 -47.291 -74.6272 4.922 8.71347 4.71986 -62.5335 3.26023 80.6882 -16.9436 -21.1664 1.87183 -6.80461 -20.6565 -9.03718 2.85415 -11.2118 -11.1759 -7.92671 4.16819 -18.9335 -7.46131 -7.91248 6.78551 -35.025 12.6765 -10.1462 2.58777 26.3205 9.68373 12.8208 43.1396 82.3615 4.59015 -4.77563 -3.48742 59.6708 7.98021 81.1288 20.992 19.3233 2.65108 8.15955 19.2914 11.2828 -3.96838 13.2132 14.8766 14.8252 -6.02447 25.0211 8.34096 4.86397 -5.67132 38.7891 -14.4547 9.76079 0.52194 -0.508488 -0.00463284 0.0240216 -0.545941 0.508514 0 0.533345 -0.508487 -0.00473405 2.41484e-006 -0.533326 0.508514 0 
-0.103604 -0.0600741 0.0480567 -1.42294e-012 4.9231e-008 -5.10929e-006 0 -0 0 0 -0 0 0 -0 0 -0.712608 0.297415 4.41156e-011 0.367728 -10.3629 11.3095 -25.4124 -47.8201 -75.5477 4.71233 8.3423 4.51881 -61.5265 1.96103 80.563 -16.4673 -20.8175 1.53919 -7.18209 -21.0747 -9.21215 2.71719 -11.7317 -11.4522 -8.32432 4.35828 -19.0543 -8.66496 -8.35941 7.19843 -34.3756 10.5961 -11.2139 2.47699 25.3589 10.8001 12.3673 43.9801 83.0355 4.39365 -4.57118 -3.33812 58.821 8.7634 80.8381 21.1973 19.6801 3.0604 8.55285 19.672 11.6094 -3.8132 13.5739 15.5703 15.3453 -6.12643 25.2433 9.2742 5.60306 -5.75577 38.3177 -12.5147 10.553 0.558976 -0.516146 -0.00503628 0.0240216 -0.582975 0.516176 0 0.570381 -0.516145 -0.00513901 2.25836e-006 -0.57036 0.516176 0 
-0.103482 -0.0600813 0.0486522 -1.3064e-012 5.25651e-008 -5.10926e-006 0 -0 0 0 -0 0 0 -0 0 -0.71267 0.297085 4.54615e-011 0.351137 -10.0724 12.3317 -24.64 -48.3915 -76.429 4.49973 7.96592 4.31493 -60.5196 0.661837 80.4378 -15.991 -20.4686 1.20654 -7.55958 -21.4929 -9.38712 2.58024 -12.2516 -11.7285 -8.72192 4.54837 -19.175 -9.86862 -8.80635 7.61135 -33.7261 8.51567 -12.2816 2.36473 24.3847 11.9267 11.9537 44.8556 83.6571 4.19452 -4.36401 -3.18683 57.9711 9.54659 80.5475 21.4025 20.0369 3.46972 8.94614 20.0526 11.9361 -3.65801 13.9345 16.264 15.8654 -6.22839 25.4656 10.2074 6.34214 -5.84023 37.8464 -10.5748 11.3453 0.596483 -0.523814 -0.00545402 0.0240216 -0.620479 0.523848 0 0.607887 -0.523813 -0.00555828 2.83165e-006 -0.607864 0.523848 0 
-0.103361 -0.060089 0.0492539 -1.03158e-012 5.59379e-008 -5.10924e-006 0 -0 0 0 -0 0 0 -0 0 -0.712734 0.296755 4.66098e-011 0.334343 -9.77808 13.3547 -23.8789 -49.005 -77.2678 4.28452 7.58494 4.10856 -59.5126 -0.637361 80.3126 -15.5147 -20.1197 0.873898 -7.93707 -21.9111 -9.56209 2.44329 -12.7716 -12.0049 -9.11953 4.73846 -19.2958 -11.0723 -9.25328 8.02427 -33.0767 6.43524 -13.3493 2.25116 23.3994 13.0594 11.5814 45.7651 84.2233 3.99308 -4.15443 -3.03379 57.1213 10.3298 80.2568 21.6078 20.3937 3.87904 9.33944 20.4333 12.2627 -3.50282 14.2952 16.9576 16.3855 -6.33035 25.6879 11.1407 7.08123 -5.92468 37.375 -8.63481 12.1375 0.634382 -0.531472 -0.00588534 0.0240216 -0.658376 0.53151 0 0.645787 -0.531471 -0.00599113 2.41484e-006 -0.645762 0.53151 0 
